<svg width="40" height="40" viewBox="0 0 40 40" fill="none" xmlns="http://www.w3.org/2000/svg">
<rect x="11.4286" y="11.4285" width="2.85714" height="2.85714" fill="#F2F2F2"/>
<rect x="25.7143" y="11.4285" width="2.85714" height="2.85714" fill="#F2F2F2"/>
<rect x="28.5714" y="25.7141" width="2.85714" height="2.85714" transform="rotate(90 28.5714 25.7141)" fill="#F2F2F2"/>
<rect x="25.7143" y="19.9998" width="2.85714" height="5.71429" transform="rotate(90 25.7143 19.9998)" fill="#F2F2F2"/>
<rect x="14.2857" y="28.5713" width="2.85714" height="2.85714" transform="rotate(-180 14.2857 28.5713)" fill="#F2F2F2"/>
<rect x="14.2857" y="8.57129" width="11.4286" height="2.85714" fill="#F2F2F2"/>
<rect x="31.4286" y="14.2856" width="11.4286" height="2.85714" transform="rotate(90 31.4286 14.2856)" fill="#F2F2F2"/>
<rect x="11.4286" y="14.2856" width="11.4286" height="2.85714" transform="rotate(90 11.4286 14.2856)" fill="#F2F2F2"/>
<rect x="20" y="14.2856" width="8.57143" height="2.85714" transform="rotate(90 20 14.2856)" fill="#F2F2F2"/>
<rect x="25.7143" y="31.4285" width="11.4286" height="2.85714" transform="rotate(-180 25.7143 31.4285)" fill="#F2F2F2"/>
</svg>
